<?xml version="1.0" encoding="UTF-8" standalone="no"?>
<!DOCTYPE svg PUBLIC "-//W3C//DTD SVG 1.1//EN" "http://www.w3.org/Graphics/SVG/1.1/DTD/svg11.dtd">
<svg width="100%" height="100%" viewBox="0 0 358 124" version="1.1" xmlns="http://www.w3.org/2000/svg" xmlns:xlink="http://www.w3.org/1999/xlink" xml:space="preserve" xmlns:serif="http://www.serif.com/" style="fill-rule:evenodd;clip-rule:evenodd;stroke-linejoin:round;stroke-miterlimit:2;">
    <path d="M42.493,26.625C23.037,26.625 7.118,42.544 7.118,62C7.118,81.456 23.037,97.375 42.493,97.375C61.949,97.375 77.868,81.456 77.868,62C77.868,42.544 61.949,26.625 42.493,26.625ZM46.03,33.947C58.799,35.539 68.955,45.726 70.544,58.463L46.03,58.463L46.03,33.947ZM14.193,62C14.193,47.639 25.051,35.682 38.956,33.947L38.956,90.086C25.052,88.316 14.193,76.363 14.193,62ZM46.03,90.051L46.03,65.537L70.544,65.537C68.955,78.307 58.799,88.462 46.03,90.051Z" style="fill:white;fill-rule:nonzero;"/>
    <g transform="matrix(1,0,0,1,3.28222,-0.270098)">
        <text x="105.287px" y="99.618px" style="font-family:'ArialMT', 'Arial', sans-serif;font-size:98.108px;fill:white;">TS</text>
    </g>
</svg>
